<?xml version="1.0" standalone="no"?>
<!DOCTYPE svg PUBLIC "-//W3C//DTD SVG 20010904//EN"
 "http://www.w3.org/TR/2001/REC-SVG-20010904/DTD/svg10.dtd">
<svg version="1.0" xmlns="http://www.w3.org/2000/svg"
 width="512.000000pt" height="512.000000pt" viewBox="0 0 512.000000 512.000000"
 preserveAspectRatio="xMidYMid meet">
<metadata>
Created by potrace 1.11, written by Peter Selinger 2001-2013
</metadata>
<g transform="translate(0.000000,512.000000) scale(0.100000,-0.100000)"
fill="#000000" stroke="none">
<path d="M0 2560 l0 -2560 1035 0 c670 0 1035 3 1035 10 0 8 -121 385 -177
549 -28 82 -72 190 -108 261 -19 38 -35 74 -35 80 0 6 -18 32 -39 58 -40 48
-47 68 -71 207 -7 39 -21 93 -31 120 -27 76 -40 157 -39 232 2 55 -4 221 -9
281 0 7 -5 11 -9 8 -12 -7 -31 59 -25 84 3 11 1 20 -4 20 -26 0 -62 172 -63
298 0 57 -2 63 -24 72 -50 19 -58 81 -17 138 12 18 17 38 14 60 -5 31 10 46
20 20 3 -9 7 -7 12 5 5 13 1 25 -14 40 -20 21 -21 21 -21 2 -1 -43 -29 17 -50
106 -33 142 -11 229 70 268 41 20 50 18 50 -10 0 -9 8 -20 18 -24 14 -5 15 -4
5 6 -15 15 -17 33 -3 24 9 -5 15 23 11 48 -3 17 9 4 30 -33 38 -66 103 -100
242 -125 58 -11 83 -20 100 -39 19 -20 25 -22 40 -12 9 7 14 16 11 19 -3 3 3
3 15 0 12 -3 21 -1 21 4 0 5 15 9 33 8 17 -2 40 2 50 7 10 5 31 6 47 3 24 -5
29 -12 32 -42 4 -45 23 -54 32 -16 4 15 27 54 52 86 48 62 70 107 54 107 -14
0 -6 39 18 86 11 21 27 64 35 95 22 74 56 123 88 127 14 2 31 -3 36 -10 25
-30 123 -275 123 -306 0 -29 9 -43 52 -83 29 -27 55 -44 56 -39 2 6 -2 18 -10
27 -11 15 -11 16 5 10 10 -4 35 -7 55 -7 24 0 32 -3 24 -9 -11 -7 -11 -9 2
-14 8 -3 18 -2 22 4 3 6 11 4 18 -6 12 -17 55 -16 186 4 223 35 292 77 325
199 9 31 18 62 20 67 1 6 9 -11 16 -37 10 -35 16 -45 25 -37 9 7 14 2 18 -19
5 -21 15 -31 39 -38 74 -21 90 -160 38 -320 -38 -116 -40 -139 -12 -197 29
-60 24 -111 -15 -145 -29 -26 -43 -74 -69 -247 -9 -60 -26 -143 -37 -184 -11
-40 -18 -83 -15 -95 15 -62 62 -150 97 -182 27 -25 59 -77 109 -179 39 -79 71
-148 71 -154 0 -6 10 -20 22 -31 12 -11 38 -50 58 -87 35 -67 71 -94 62 -47
-2 14 0 24 7 24 6 0 11 -9 11 -20 0 -11 7 -20 15 -20 8 0 15 -4 15 -10 0 -5 5
-10 10 -10 6 0 10 7 10 15 0 8 4 15 8 15 12 0 53 -47 88 -100 16 -25 32 -46
37 -48 4 -2 7 -9 7 -16 0 -7 11 -29 24 -48 13 -20 29 -52 36 -72 6 -20 16 -36
21 -36 5 0 9 -9 9 -21 0 -12 6 -35 14 -52 8 -18 31 -88 51 -157 53 -177 71
-223 131 -331 30 -52 61 -116 70 -142 l16 -47 389 0 389 0 0 2160 0 2160 -137
0 c-76 0 -534 5 -1017 11 -768 10 -881 13 -895 26 -10 11 -16 12 -19 4 -2 -6
-10 -11 -18 -11 -8 0 -14 -7 -14 -15 0 -9 9 -15 22 -15 21 0 21 0 3 -14 -19
-13 -18 -15 17 -21 24 -5 35 -11 32 -20 -5 -12 31 -32 49 -27 4 1 7 -5 7 -13
0 -8 7 -15 15 -15 8 0 15 -4 15 -8 0 -4 21 -24 48 -43 48 -37 95 -111 98 -159
1 -14 7 -45 13 -70 14 -55 22 -147 11 -131 -5 10 -9 9 -13 -2 -3 -9 1 -21 9
-27 11 -10 14 -10 14 0 0 34 11 -4 15 -51 3 -29 10 -56 17 -60 7 -4 12 -43 14
-99 2 -62 8 -98 18 -109 9 -11 14 -39 14 -85 -1 -76 -10 -71 -27 15 l-12 56
-52 6 c-29 4 -83 11 -122 16 -38 5 -151 11 -250 12 -174 1 -184 0 -300 -30
-116 -31 -125 -32 -270 -28 -113 4 -169 11 -225 27 -111 31 -367 28 -650 -8
l-55 -7 -12 -90 c-16 -109 -15 -106 -30 -97 -9 6 -9 22 3 72 8 36 17 97 19
135 3 65 20 145 43 205 5 14 8 38 6 54 -2 16 2 38 8 49 9 17 8 19 -6 14 -22
-9 -20 6 4 28 12 10 19 24 16 31 -3 7 0 11 7 9 19 -7 45 18 62 58 17 42 19 57
6 57 -5 0 -31 9 -57 21 -36 15 -45 22 -34 29 8 5 17 7 21 4 4 -2 10 0 14 6 4
6 11 8 16 5 18 -12 8 14 -17 45 -16 18 -23 35 -18 40 12 12 25 2 53 -40 14
-22 20 -27 16 -13 -4 15 0 25 13 32 11 6 22 7 26 4 3 -3 6 2 7 13 0 18 1 18 9
-1 13 -32 23 5 10 39 -5 15 -10 37 -9 49 l0 22 11 -22 c18 -38 37 -36 43 5 3
20 12 51 20 67 8 17 16 41 18 55 l4 25 11 -25 11 -25 0 27 c2 51 -13 55 -200
57 -95 1 -175 4 -178 6 -3 1 -7 -19 -8 -46 -4 -99 -33 -586 -38 -639 -3 -30
-7 -89 -10 -130 -2 -41 -9 -140 -15 -220 -6 -80 -22 -305 -36 -500 -13 -195
-36 -503 -49 -685 -13 -181 -29 -404 -35 -495 -6 -91 -13 -171 -15 -177 -3 -8
-22 -13 -50 -13 -40 0 -45 2 -44 23 0 21 1 21 10 2 6 -14 8 0 6 47 -1 36 1 64
6 61 4 -2 7 8 7 24 0 15 5 91 10 168 6 77 13 179 15 227 3 48 10 130 16 182 6
52 9 119 7 149 -1 30 0 53 5 50 4 -2 8 31 8 74 3 145 5 188 12 203 6 15 26
278 34 450 8 174 12 225 22 275 5 28 6 51 2 53 -5 1 -5 22 0 45 4 23 13 103
19 177 5 74 14 191 20 260 15 191 19 247 26 350 3 52 7 105 10 118 l5 23 272
-1 c158 -1 285 2 303 8 22 7 35 7 43 -1 8 -8 11 -7 11 2 0 8 6 11 15 7 9 -3
15 0 15 9 0 8 5 15 10 15 6 0 10 -5 10 -12 0 -9 3 -9 12 0 22 22 28 13 29 -40
l2 -53 7 50 c8 59 25 105 40 105 5 0 10 -12 11 -27 0 -16 3 -22 6 -15 10 25
24 11 18 -18 -7 -34 3 -110 14 -110 5 0 11 26 15 58 11 89 30 152 45 152 4 0
8 6 9 13 8 89 12 117 20 147 12 41 11 42 18 -38 3 -36 1 -68 -4 -75 -11 -12 5
-117 17 -117 3 0 5 -28 3 -62 -2 -46 0 -59 7 -48 6 8 11 27 11 42 0 14 3 28 8
30 4 2 16 30 26 63 17 53 20 57 26 35 l7 -25 11 25 c6 14 21 38 34 53 16 20
23 42 23 70 0 36 3 42 20 39 24 -5 21 -2 29 -28 5 -16 2 -23 -14 -27 -15 -4
-20 -13 -19 -34 1 -15 -6 -41 -15 -58 -9 -16 -16 -36 -16 -42 0 -7 -4 -13 -9
-13 -10 0 -36 -68 -29 -76 3 -2 15 16 27 41 12 25 27 45 33 45 5 0 8 7 4 15
-3 8 -1 15 4 15 6 0 10 9 10 20 0 10 6 23 14 27 7 4 16 15 19 23 3 8 6 -1 7
-20 1 -19 4 -27 7 -18 2 10 10 15 19 11 8 -3 14 1 15 8 1 8 2 21 3 29 2 8 3
25 4 38 2 18 7 23 25 20 17 -2 21 -9 19 -28 -1 -13 -9 -28 -17 -33 -24 -13
-17 -25 13 -22 47 3 53 12 34 48 -9 17 -23 36 -29 40 -21 13 -16 47 7 47 12 0
20 7 20 17 0 13 -3 14 -11 6 -6 -6 -18 -9 -25 -6 -9 3 -14 -2 -14 -16 0 -12
-3 -21 -8 -21 -4 0 -6 18 -4 40 3 26 9 40 18 40 8 0 14 8 14 18 0 28 11 34 26
14 13 -16 14 -15 20 6 3 12 11 22 16 22 5 0 6 9 3 20 -4 12 -2 20 5 20 8 0 11
-20 9 -57 -2 -57 -2 -58 24 -56 22 1 28 -4 34 -25 l7 -27 6 30 7 30 11 -27 c6
-16 9 -41 6 -58 -4 -17 -2 -30 4 -30 16 0 20 46 8 85 -6 19 -17 35 -23 35 -7
0 -13 11 -13 25 0 14 5 25 10 25 6 0 16 -11 22 -25 6 -14 17 -25 25 -25 10 0
12 -13 9 -53 -2 -33 2 -64 10 -78 11 -21 12 -13 8 60 -2 46 -1 88 4 95 5 6 13
21 16 34 6 17 3 22 -10 22 -14 0 -15 3 -6 12 10 10 15 10 22 -2 10 -16 12 -15
28 15 11 19 11 19 12 -4 0 -14 5 -40 12 -58 10 -28 10 -36 -1 -42 -9 -6 -10
-11 -2 -15 6 -4 11 -2 11 3 0 6 5 11 10 11 6 0 10 -16 10 -35 0 -19 4 -35 9
-35 5 0 13 48 17 108 4 59 10 96 12 82 2 -14 9 -30 16 -35 8 -6 17 -31 21 -55
4 -25 11 -54 15 -65 7 -18 9 -17 14 10 13 57 21 78 34 83 7 2 12 -5 12 -16 0
-11 -5 -22 -11 -24 -17 -6 7 -48 27 -48 11 0 14 -6 10 -16 -3 -9 -6 -20 -6
-25 0 -6 -10 -8 -22 -5 l-23 6 23 -12 c36 -18 46 1 48 104 4 141 3 137 21 98
l15 -35 10 29 c8 21 13 25 19 15 5 -8 9 -23 9 -34 0 -11 7 -33 15 -49 8 -15
15 -38 15 -50 0 -17 2 -18 10 -6 5 8 10 38 10 67 0 51 15 79 26 50 6 -17 43
-11 45 7 1 6 1 43 0 81 -2 103 20 58 26 -54 3 -47 9 -92 14 -101 7 -13 8 -12
9 3 0 9 7 17 15 17 17 0 21 16 5 22 -5 2 -6 9 -1 17 7 10 15 7 40 -16 17 -17
31 -35 31 -41 0 -6 7 -9 15 -6 10 4 15 0 15 -14 0 -25 50 -38 51 -13 0 9 2 43
4 76 3 41 1 55 -5 45 -5 -8 -10 -36 -10 -62 0 -29 -4 -48 -11 -48 -8 0 -10 15
-5 46 3 26 6 63 7 83 0 20 3 30 6 24 8 -20 23 -15 23 7 0 11 5 20 10 20 6 0
10 -11 10 -26 0 -14 8 -44 19 -67 10 -23 21 -49 24 -57 3 -8 6 8 6 36 1 47 13
74 34 74 4 0 5 -9 2 -20 -9 -29 4 -60 25 -60 11 0 17 5 15 13 -3 6 -1 26 4 42
8 25 9 26 10 8 1 -31 21 -29 21 2 0 14 5 25 11 25 6 0 8 -8 5 -17 -3 -10 -2
-24 3 -32 7 -11 13 -10 33 3 27 17 38 13 38 -16 0 -21 -11 -23 -28 -6 -9 9
-12 4 -11 -23 1 -18 3 -26 6 -16 6 21 32 22 40 1 3 -8 12 -13 19 -10 9 4 14
-2 14 -16 0 -12 3 -19 6 -15 3 3 6 30 5 59 0 53 15 96 26 71 6 -16 33 -17 33
-2 0 5 4 7 10 4 5 -3 10 -15 10 -26 0 -10 4 -19 9 -19 9 0 25 92 21 120 -5 36
0 46 15 26 13 -17 15 -17 21 -3 3 10 3 28 0 42 l-6 25 -1995 0 -1995 0 0
-2560z m3547 2488 c-3 -7 -5 -2 -5 12 0 14 2 19 5 13 2 -7 2 -19 0 -25z m-632
-48 c1 -22 -3 -40 -7 -40 -4 0 -8 18 -8 40 0 22 3 40 8 40 4 0 7 -18 7 -40z
m922 18 c-3 -8 -6 -5 -6 6 -1 11 2 17 5 13 3 -3 4 -12 1 -19z m-660 -30 c-3
-7 -5 -2 -5 12 0 14 2 19 5 13 2 -7 2 -19 0 -25z m-230 -10 c-3 -8 -6 -5 -6 6
-1 11 2 17 5 13 3 -3 4 -12 1 -19z m528 -53 c-5 -34 -12 -54 -19 -52 -6 2 -12
12 -13 23 -3 18 -2 18 6 -1 8 -17 10 -14 10 15 1 40 11 83 18 76 3 -2 1 -30
-2 -61z m325 45 c0 -5 -4 -10 -10 -10 -5 0 -10 5 -10 10 0 6 5 10 10 10 6 0
10 -4 10 -10z m-223 -22 c-3 -8 -6 -5 -6 6 -1 11 2 17 5 13 3 -3 4 -12 1 -19z
m-901 -66 c-11 -10 -13 3 -7 43 l6 40 3 -39 c2 -21 1 -41 -2 -44z m243 3 c-1
-36 -5 -65 -10 -65 -5 0 -9 29 -9 65 0 36 4 65 10 65 5 0 9 -29 9 -65z m61 18
c0 -7 -4 -13 -10 -13 -5 0 -10 12 -10 28 0 21 2 24 10 12 5 -8 10 -21 10 -27z
m860 -3 c0 -11 -4 -20 -9 -20 -5 0 -7 9 -4 20 3 11 7 20 9 20 2 0 4 -9 4 -20z
m-1283 -12 c-3 -8 -6 -5 -6 6 -1 11 2 17 5 13 3 -3 4 -12 1 -19z m153 -33 c0
-30 -4 -55 -10 -55 -11 0 -13 52 -4 88 10 36 14 26 14 -33z m177 13 c-3 -7 -5
-2 -5 12 0 14 2 19 5 13 2 -7 2 -19 0 -25z m-297 2 c0 -5 -4 -10 -10 -10 -5 0
-10 5 -10 10 0 6 5 10 10 10 6 0 10 -4 10 -10z m-263 -37 c-3 -10 -5 -4 -5 12
0 17 2 24 5 18 2 -7 2 -21 0 -30z m-26 -45 c0 -10 2 -10 6 0 12 29 21 8 20
-48 0 -33 2 -62 5 -65 13 -14 -5 -44 -25 -42 -27 1 -37 14 -37 51 0 23 3 26
14 17 10 -9 15 -8 20 4 3 10 -1 15 -12 15 -16 1 -16 1 1 11 21 12 23 39 2 39
-8 0 -15 7 -15 15 0 18 20 20 21 3z m89 -43 c0 -42 -3 -55 -15 -55 -8 0 -15 7
-15 15 0 8 4 15 9 15 4 0 6 11 3 25 -4 25 3 55 13 55 3 0 5 -25 5 -55z m-325
35 c3 -5 1 -10 -4 -10 -6 0 -11 5 -11 10 0 6 2 10 4 10 3 0 8 -4 11 -10z
m-120 -70 c-4 -12 -9 -19 -12 -17 -3 3 -2 15 2 27 4 12 9 19 12 17 3 -3 2 -15
-2 -27z m31 -92 c-1 -85 -4 -112 -15 -116 -11 -4 -12 6 -6 54 4 33 7 80 6 107
-2 41 3 67 13 67 2 0 3 -50 2 -112z m70 104 c15 -10 27 -89 14 -97 -13 -8 -13
-75 0 -75 16 0 12 -18 -9 -39 -19 -19 -19 -18 -30 3 -10 19 -11 18 -6 -9 4
-19 3 -26 -3 -20 -12 12 -21 95 -10 95 4 0 5 7 1 16 -3 9 3 21 16 30 16 12 21
25 20 57 -1 36 -2 38 -9 17 l-8 -25 -1 28 c-1 27 5 33 25 19z m454 -32 c0 -10
-4 -22 -10 -25 -6 -4 -10 7 -10 25 0 18 4 29 10 25 6 -3 10 -15 10 -25z m-110
-30 c0 -11 -7 -20 -15 -20 -8 0 -15 9 -15 20 0 11 7 20 15 20 8 0 15 -9 15
-20z m-728 -141 c-3 -29 -8 -47 -14 -43 -5 4 -8 23 -6 43 3 20 1 50 -4 66 -4
17 -5 44 -1 60 6 28 7 27 17 -24 6 -29 9 -75 8 -102z m274 83 c-11 -10 -14 3
-8 33 l7 30 3 -28 c2 -16 1 -31 -2 -35z m-178 23 c-3 -3 -9 2 -12 12 -6 14 -5
15 5 6 7 -7 10 -15 7 -18z m-81 -17 c-3 -7 -5 -2 -5 12 0 14 2 19 5 13 2 -7 2
-19 0 -25z m519 -1 c-6 -24 -36 -46 -36 -27 0 6 4 10 9 10 5 0 12 12 15 26 4
15 10 24 13 21 3 -3 3 -17 -1 -30z m104 16 c10 10 11 8 5 -8 -4 -11 -10 -51
-13 -90 -4 -55 -6 -65 -13 -46 -5 13 -7 45 -3 71 4 30 2 50 -5 54 -6 4 -11 15
-11 24 1 16 2 16 14 0 10 -14 15 -15 26 -5z m-783 -25 c-3 -8 -6 -5 -6 6 -1
11 2 17 5 13 3 -3 4 -12 1 -19z m603 13 c0 -6 -4 -13 -10 -16 -5 -3 -10 1 -10
9 0 9 5 16 10 16 6 0 10 -4 10 -9z m-273 -43 c-3 -8 -6 -5 -6 6 -1 11 2 17 5
13 3 -3 4 -12 1 -19z m89 0 c-3 -13 -6 -36 -6 -53 0 -44 -16 -13 -18 35 -1 31
2 40 14 40 12 0 15 -6 10 -22z m-826 -8 c0 -5 -2 -10 -4 -10 -3 0 -8 5 -11 10
-3 6 -1 10 4 10 6 0 11 -4 11 -10z m1027 -6 c-3 -3 -12 -4 -19 -1 -8 3 -5 6 6
6 11 1 17 -2 13 -5z m-1010 -46 c-3 -7 -5 -2 -5 12 0 14 2 19 5 13 2 -7 2 -19
0 -25z m-36 -17 c8 12 12 11 24 -5 17 -23 19 -36 6 -36 -5 0 -12 8 -14 18 -3
9 -3 -2 0 -25 8 -61 -13 -55 -26 7 -6 28 -10 59 -10 68 1 9 4 4 6 -12 4 -23 7
-26 14 -15z m804 4 c1 -15 -4 -21 -12 -18 -14 5 -18 35 -6 46 10 10 18 -2 18
-28z m-49 0 c0 -14 -7 -25 -13 -25 -10 0 -10 6 -1 25 14 31 16 31 14 0z m-313
-1 c4 9 11 14 17 11 28 -18 -7 -39 -47 -29 -25 7 -25 8 -7 21 16 12 19 11 25
-4 5 -15 6 -15 12 1z m182 -3 c3 -5 1 -12 -5 -16 -5 -3 -10 1 -10 9 0 18 6 21
15 7z m-92 -8 c3 -5 -9 -9 -26 -10 -26 -1 -28 0 -12 7 26 11 33 12 38 3z m137
-3 c0 -5 -8 -10 -17 -10 -15 0 -16 2 -3 10 19 12 20 12 20 0z m30 6 c0 -3 -4
-8 -10 -11 -5 -3 -10 -1 -10 4 0 6 5 11 10 11 6 0 10 -2 10 -4z m-530 -296
c-10 -146 -21 -299 -24 -340 -3 -41 -14 -205 -26 -365 -11 -159 -25 -348 -31
-420 -5 -71 -14 -186 -19 -255 -5 -69 -16 -213 -24 -320 -44 -549 -67 -835
-72 -926 l-7 -101 -102 -31 c-80 -25 -111 -40 -147 -72 -25 -22 -51 -40 -58
-40 -6 0 -8 -4 -5 -10 7 -11 -24 -75 -32 -67 -3 3 -1 12 3 19 4 7 9 44 11 83
4 96 16 160 30 160 6 0 15 3 19 8 4 4 0 7 -9 7 -9 0 -18 4 -21 8 -2 4 2 73 9
153 16 165 19 252 6 229 -5 -8 -12 -62 -16 -120 -4 -58 -9 -118 -10 -135 -2
-16 -6 -67 -9 -113 -3 -45 -7 -86 -10 -91 -3 -5 -6 -20 -5 -32 0 -23 -7 -84
-15 -121 -2 -10 0 -18 6 -18 5 0 6 -5 2 -12 -4 -7 -7 -26 -6 -44 2 -18 -6 -41
-18 -56 -11 -15 -20 -31 -20 -36 0 -25 -26 -30 -85 -16 -33 7 -88 14 -122 14
-35 0 -63 4 -63 9 0 5 34 8 75 6 57 -3 78 0 90 11 13 13 15 14 15 1 0 -10 7
-13 20 -10 14 4 20 0 20 -11 0 -9 5 -16 11 -16 5 0 7 4 4 10 -3 5 -1 28 5 51
9 31 14 39 21 28 5 -8 9 -9 9 -4 0 6 -6 17 -12 24 -11 11 -10 13 2 9 23 -7 38
31 28 70 -5 18 -6 42 -3 52 4 11 2 20 -4 20 -15 0 -25 41 -12 50 9 5 8 10 -4
20 -13 11 -15 7 -15 -28 0 -23 -4 -43 -9 -46 -5 -3 -7 -16 -4 -28 4 -14 0 -26
-12 -34 -14 -11 -16 -16 -6 -28 7 -8 11 -23 9 -33 -1 -10 1 -24 6 -32 6 -8 1
-20 -13 -34 -17 -18 -21 -19 -21 -5 0 9 -6 19 -12 22 -10 3 -8 9 5 19 17 15
24 57 8 57 -15 0 -20 51 -5 57 17 6 18 35 2 51 -9 9 -9 15 0 24 18 18 14 28
-11 28 -13 0 -28 5 -35 12 -15 15 -21 -1 -26 -75 -2 -32 -9 -64 -16 -70 -10
-10 -11 -6 -6 15 3 15 1 28 -4 30 -7 2 -7 25 -2 67 5 34 9 92 8 127 -1 43 3
65 12 69 17 6 12 74 -6 84 -11 6 -10 10 2 20 18 15 22 81 5 81 -5 0 -9 -8 -7
-18 2 -11 -2 -25 -9 -33 -7 -9 -14 -63 -17 -136 -2 -67 -7 -127 -11 -133 -3
-6 -9 -35 -12 -65 -7 -63 -23 -74 -23 -17 0 21 -7 47 -16 58 -15 19 -15 18
-11 -4 3 -12 1 -20 -4 -16 -5 3 -9 21 -9 40 0 30 3 34 19 29 11 -3 22 -1 26 5
3 5 1 10 -4 10 -6 0 -11 12 -11 26 0 14 4 23 10 19 14 -9 12 25 -5 60 l-13 30
-3 -30 c-1 -24 -3 -26 -6 -7 -2 12 -9 22 -14 22 -5 0 -8 -10 -6 -22 1 -17 -3
-23 -18 -23 -17 0 -20 7 -21 45 l-2 45 7 -45 c4 -33 8 -40 14 -27 12 30 8 67
-8 73 -17 7 -10 60 11 85 8 9 12 18 10 20 -2 2 -6 21 -9 41 -5 33 -3 38 14 38
12 0 19 5 16 13 -2 6 -11 11 -21 9 -9 -2 -16 2 -16 8 0 5 7 10 16 10 10 0 12
5 7 12 -10 17 -10 71 0 79 4 3 12 63 17 133 5 70 13 132 16 138 4 6 8 41 10
77 1 36 7 117 14 178 6 62 9 117 5 123 -12 20 -24 -1 -18 -33 3 -23 0 -39 -11
-50 -19 -19 -20 -34 -3 -40 9 -4 9 -8 1 -14 -6 -4 -11 -21 -11 -38 2 -110 -32
-361 -48 -358 -5 1 -15 19 -21 40 -10 31 -20 31 -15 1 0 -4 -6 -5 -14 -2 -8 4
-15 14 -15 23 0 18 33 51 53 51 8 0 7 4 -3 10 -8 5 -24 7 -34 4 -18 -6 -19 -2
-13 47 4 30 7 70 8 89 l1 35 13 -35 13 -35 1 42 c1 23 -3 45 -9 48 -14 9 -13
85 2 85 6 0 8 3 5 7 -4 3 -2 13 5 20 9 11 9 17 -3 24 -12 8 -12 10 1 19 13 8
13 11 1 19 -11 7 -9 11 8 20 16 9 21 21 21 51 0 42 19 57 21 18 1 -16 4 -11
11 15 6 20 14 37 19 37 5 0 9 5 9 10 0 6 -9 10 -19 10 -11 0 -23 5 -26 10 -5
8 -11 8 -19 1 -19 -16 -25 -4 -20 37 10 73 14 83 32 80 13 -2 17 5 19 32 1 19
5 46 9 59 l7 25 8 -23 c7 -18 12 -20 29 -11 14 7 20 21 20 44 0 30 -3 34 -22
29 -13 -3 -28 -12 -35 -20 -7 -9 -13 -10 -17 -4 -4 6 2 19 13 30 10 10 21 27
23 38 2 10 10 18 18 18 8 0 16 4 18 8 6 17 1 26 -12 21 -8 -3 -17 0 -21 5 -3
6 -11 9 -16 6 -5 -4 -9 -2 -9 4 0 5 5 11 10 13 13 4 30 108 19 108 -5 0 -9 7
-9 15 0 8 6 14 12 12 19 -3 22 42 4 49 -20 8 -21 40 -2 47 11 4 14 21 12 64
-1 32 -5 63 -9 70 -4 6 -3 14 3 18 5 3 10 22 10 41 0 24 5 34 15 34 19 0 19 5
-2 36 -13 21 -14 30 -4 45 14 24 5 43 -16 35 -9 -4 -22 -1 -29 5 -11 9 -14 6
-14 -14 0 -20 4 -24 20 -20 15 4 20 0 20 -16 0 -16 -6 -21 -25 -21 -22 0 -25
-4 -25 -39 0 -22 3 -41 8 -44 4 -2 1 -2 -6 -1 -8 2 -12 -10 -12 -36 0 -23 -5
-40 -11 -40 -8 0 -10 19 -5 66 5 48 4 64 -5 59 -8 -6 -9 16 -4 80 7 79 6 88
-9 82 -10 -4 -16 -1 -16 8 0 9 6 12 16 8 10 -4 15 -1 13 8 -1 8 1 21 5 29 3 8
10 35 14 60 5 26 13 44 20 43 7 -2 12 2 12 7 0 6 9 10 19 10 11 0 21 6 24 13
7 20 17 2 22 -39 2 -22 4 -43 5 -49 1 -5 6 1 11 14 9 23 23 24 73 5 10 -4 16
-1 16 9 0 8 7 17 15 21 8 3 16 13 16 23 1 10 5 2 9 -17 7 -35 7 -35 17 -10
l11 25 7 -27 c9 -33 21 -36 30 -7 5 15 10 18 18 10 6 -6 14 -11 17 -11 11 0
31 78 35 134 5 68 25 147 35 141 5 -3 11 3 13 12 3 10 5 0 6 -22 1 -29 7 -44
21 -53 29 -18 40 -7 40 38 0 21 5 51 12 67 11 27 12 27 15 6 5 -25 18 -30 27
-10 3 6 3 2 0 -11 -3 -14 2 -32 16 -49 18 -23 20 -36 15 -70 -5 -35 -3 -43 9
-43 17 0 31 -41 23 -62 -3 -7 -6 -1 -6 14 -2 50 -21 41 -21 -10 0 -27 -3 -52
-7 -56 -10 -10 -11 -56 -2 -50 4 2 11 23 15 47 l8 42 6 -45 6 -45 13 50 c7 28
14 64 15 80 2 17 6 46 9 65 4 19 9 60 11 90 2 30 10 68 17 84 10 22 11 30 2
33 -30 10 27 78 58 70 15 -4 19 -2 15 9 -4 11 4 14 34 14 21 0 42 -5 46 -12 4
-7 3 -8 -4 -4 -11 7 -9 -31 4 -72 2 -7 -1 -10 -6 -7 -16 10 -12 -22 5 -39 8
-8 15 -30 16 -48 0 -18 3 -26 6 -18 3 8 10 17 14 20 5 3 10 42 11 85 2 60 0
79 -9 78 -7 -2 -13 4 -13 13 0 8 5 12 10 9 6 -4 13 8 16 25 4 17 10 28 14 23
4 -4 0 -127 -10 -273z m-359 157 c-8 -8 -11 1 -11 29 0 53 14 67 18 19 2 -21
-1 -42 -7 -48z m166 51 c-3 -7 -5 -2 -5 12 0 14 2 19 5 13 2 -7 2 -19 0 -25z
m-270 -40 c-3 -8 -6 -5 -6 6 -1 11 2 17 5 13 3 -3 4 -12 1 -19z m440 -85 c-2
-21 -4 -6 -4 32 0 39 2 55 4 38 2 -18 2 -50 0 -70z m-447 51 c0 -8 -5 -12 -10
-9 -6 4 -8 11 -5 16 9 14 15 11 15 -7z m151 -30 c-9 -28 -9 -29 -10 -3 -1 14
2 29 6 32 11 12 13 2 4 -29z m-44 4 c-3 -8 -6 -5 -6 6 -1 11 2 17 5 13 3 -3 4
-12 1 -19z m77 -25 c-4 -10 -7 -28 -7 -41 1 -17 -2 -20 -11 -13 -17 14 -8 71
11 71 11 0 13 -5 7 -17z m36 -33 c0 -16 -4 -30 -10 -30 -11 0 -14 43 -3 53 11
12 13 8 13 -23z m-13 -75 c0 -8 -4 -12 -9 -9 -4 3 -8 9 -8 15 0 5 4 9 8 9 5 0
9 -7 9 -15z m-277 -54 c0 -11 -3 -11 -15 -1 -8 7 -15 22 -15 33 0 20 0 20 15
1 8 -10 15 -25 15 -33z m-256 -55 c-9 -14 -21 -26 -26 -26 -14 0 2 43 21 57
22 16 25 -1 5 -31z m156 9 c0 -8 -4 -15 -10 -15 -5 0 -7 7 -4 15 4 8 8 15 10
15 2 0 4 -7 4 -15z m90 -51 c0 -8 -4 -12 -10 -9 -5 3 -10 10 -10 16 0 5 5 9
10 9 6 0 10 -7 10 -16z m-150 -53 c0 -6 -9 -9 -19 -8 -11 0 -17 5 -15 9 7 11
34 10 34 -1z m1014 -37 c4 -10 -10 -26 -39 -46 -25 -18 -45 -35 -45 -40 0 -4
-9 -8 -20 -8 -11 0 -20 3 -20 6 0 14 26 51 57 80 35 33 57 35 67 8z m-1167
-276 c-3 -8 -6 -5 -6 6 -1 11 2 17 5 13 3 -3 4 -12 1 -19z m-52 -38 c3 -5 1
-10 -4 -10 -6 0 -11 5 -11 10 0 6 2 10 4 10 3 0 8 -4 11 -10z m-5 -30 c0 -5
-4 -10 -10 -10 -5 0 -10 5 -10 10 0 6 5 10 10 10 6 0 10 -4 10 -10z m63 -43
c-4 -7 -6 -21 -5 -32 2 -17 1 -18 -7 -4 -12 18 -3 61 10 53 5 -3 6 -11 2 -17z
m-63 3 c0 -5 -4 -10 -10 -10 -5 0 -10 5 -10 10 0 6 5 10 10 10 6 0 10 -4 10
-10z m20 -65 c0 -8 -4 -15 -10 -15 -5 0 -10 7 -10 15 0 8 5 15 10 15 6 0 10
-7 10 -15z m-113 -72 c-3 -10 -5 -4 -5 12 0 17 2 24 5 18 2 -7 2 -21 0 -30z
m138 17 c7 -23 -2 -60 -16 -60 -5 0 -9 18 -9 40 0 42 14 54 25 20z m-58 -37
c-4 -17 -4 -17 -12 0 -4 9 -4 25 0 35 8 16 8 16 12 0 3 -10 3 -26 0 -35z
m1424 -176 c-7 -74 -7 -144 -1 -207 5 -52 9 -104 9 -115 0 -41 -27 14 -38 79
-19 108 -8 290 21 356 18 41 21 7 9 -113z m-1444 81 c-3 -8 -6 -5 -6 6 -1 11
2 17 5 13 3 -3 4 -12 1 -19z m2839 -15 c17 -92 -19 -403 -47 -403 -13 0 -11
34 6 123 8 43 15 132 15 198 0 118 12 156 26 82z m226 -61 c3 -11 -1 -30 -8
-43 -13 -23 -13 -22 -14 19 0 43 14 57 22 24z m-1880 -48 c3 -36 -9 -64 -27
-64 -7 0 -6 50 1 89 8 41 21 28 26 -25z m-1174 -39 c-3 -3 -9 2 -12 12 -6 14
-5 15 5 6 7 -7 10 -15 7 -18z m42 -205 c0 -5 -2 -10 -4 -10 -3 0 -8 5 -11 10
-3 6 -1 10 4 10 6 0 11 -4 11 -10z m-73 -62 c-3 -8 -6 -5 -6 6 -1 11 2 17 5
13 3 -3 4 -12 1 -19z m53 -173 c0 -25 -4 -45 -10 -45 -11 0 -14 73 -3 83 11
12 13 8 13 -38z m-33 -581 c3 -8 12 -13 20 -10 13 5 31 -20 21 -30 -10 -10
-48 -13 -48 -3 0 5 6 9 12 9 7 0 2 7 -10 16 -23 16 -29 34 -12 34 6 0 13 -7
17 -16z m48 -108 c-4 -20 -12 -36 -17 -36 -6 0 -8 11 -6 24 3 17 0 27 -11 32
-13 5 -11 8 9 14 14 4 26 6 28 4 2 -1 0 -18 -3 -38z m-41 -11 c-4 -8 -8 -15
-10 -15 -2 0 -4 7 -4 15 0 8 4 15 10 15 5 0 7 -7 4 -15z m-34 -35 c0 -5 -5
-10 -11 -10 -5 0 -7 5 -4 10 3 6 8 10 11 10 2 0 4 -4 4 -10z m48 -60 c0 -22
-1 -22 -8 5 -4 17 -8 39 -8 50 0 16 2 15 8 -5 4 -14 8 -36 8 -50z m-15 -64
c-3 -13 0 -32 5 -42 7 -13 6 -28 -3 -49 l-14 -30 5 30 c3 17 1 49 -4 72 -9 41
-7 57 8 48 4 -3 5 -15 3 -29z m3192 -67 c20 -24 20 -24 0 -9 -11 8 -29 23 -40
34 l-20 18 20 -10 c11 -6 29 -21 40 -33z m65 -40 c17 -13 18 -17 5 -10 -33 17
-51 31 -40 31 6 0 21 -10 35 -21z m-3263 -101 c-3 -7 -5 -2 -5 12 0 14 2 19 5
13 2 -7 2 -19 0 -25z m47 -113 c-4 -8 -10 -12 -15 -9 -11 6 -2 24 11 24 5 0 7
-7 4 -15z m0 -62 c-10 -40 -14 -41 -14 -5 0 18 5 32 10 32 6 0 8 -11 4 -27z
m193 -45 c-3 -8 -6 -5 -6 6 -1 11 2 17 5 13 3 -3 4 -12 1 -19z m-147 -16 c0
-10 -7 -19 -15 -19 -8 0 -15 9 -15 19 0 10 7 18 15 18 8 0 15 -8 15 -18z m140
-32 c0 -5 -4 -10 -10 -10 -5 0 -10 5 -10 10 0 6 5 10 10 10 6 0 10 -4 10 -10z
m-100 -41 c0 -24 -4 -38 -10 -34 -5 3 -10 22 -10 41 0 19 5 34 10 34 6 0 10
-18 10 -41z m95 2 c3 -5 1 -12 -5 -16 -5 -3 -10 1 -10 9 0 18 6 21 15 7z m102
-33 c-3 -8 -6 -5 -6 6 -1 11 2 17 5 13 3 -3 4 -12 1 -19z m-145 -24 c-3 -26
-7 -33 -13 -22 -9 15 -1 58 10 58 4 0 5 -16 3 -36z m38 17 c0 -6 -4 -13 -10
-16 -5 -3 -10 1 -10 9 0 9 5 16 10 16 6 0 10 -4 10 -9z m-164 -48 c-11 -11
-19 6 -11 24 8 17 8 17 12 0 3 -10 2 -21 -1 -24z m164 -14 c0 -5 -4 -9 -10 -9
-5 0 -10 7 -10 16 0 8 5 12 10 9 6 -3 10 -10 10 -16z m-50 -39 c-8 -5 -24 -9
-35 -9 -16 1 -16 2 5 9 35 11 48 11 30 0z m-63 -6 c-3 -3 -12 -4 -19 -1 -8 3
-5 6 6 6 11 1 17 -2 13 -5z"/>
<path d="M2020 4552 c0 -12 19 -26 26 -19 2 2 -2 10 -11 17 -9 8 -15 8 -15 2z"/>
<path d="M1077 4345 c-8 -20 -4 -29 11 -24 5 2 6 13 2 23 -6 19 -7 19 -13 1z"/>
<path d="M1118 4269 c-2 -52 -4 -90 -7 -117 0 -7 -5 -11 -10 -8 -11 7 -21 -17
-21 -47 1 -21 1 -21 14 3 l14 24 4 -24 c2 -14 8 11 12 55 10 94 13 116 21 124
6 5 -3 -92 -10 -116 -5 -17 14 -28 19 -11 10 30 15 168 6 168 -6 0 -10 -5 -10
-11 0 -8 -5 -8 -15 1 -13 11 -15 5 -17 -41z"/>
<path d="M1201 4219 c0 -13 4 -33 9 -44 7 -14 8 -8 3 20 -7 46 -13 59 -12 24z"/>
<path d="M896 4184 c-10 -25 -6 -113 3 -89 15 36 23 105 13 105 -5 0 -13 -7
-16 -16z"/>
<path d="M1044 4120 c-6 -25 -8 -51 -6 -59 9 -23 23 29 20 69 l-4 35 -10 -45z"/>
<path d="M797 4143 c-4 -3 -7 -21 -7 -39 0 -18 -5 -36 -10 -39 -6 -4 -8 -16
-5 -26 4 -11 1 -27 -6 -35 -9 -12 -7 -18 11 -34 41 -36 54 -22 51 56 -1 41 2
54 13 54 7 0 16 7 20 15 6 18 -5 20 -21 4 -7 -7 -19 -9 -29 -5 -13 5 -15 9 -6
18 7 7 12 18 12 25 0 14 -12 17 -23 6z m7 -159 c3 -8 2 -12 -4 -9 -6 3 -10 10
-10 16 0 14 7 11 14 -7z"/>
<path d="M1132 4074 c-1 -26 3 -42 8 -39 12 8 13 72 1 79 -5 3 -9 -15 -9 -40z"/>
<path d="M878 3995 c-2 -27 -1 -59 2 -69 11 -31 21 53 11 89 -7 28 -8 27 -13
-20z"/>
<path d="M1033 3980 c0 -25 2 -35 4 -22 2 12 2 32 0 45 -2 12 -4 2 -4 -23z"/>
<path d="M1012 3945 c0 -16 2 -22 5 -12 2 9 2 23 0 30 -3 6 -5 -1 -5 -18z"/>
<path d="M425 3950 c-3 -5 -1 -10 4 -10 6 0 11 5 11 10 0 6 -2 10 -4 10 -3 0
-8 -4 -11 -10z"/>
<path d="M527 3913 c-11 -10 -8 -43 3 -43 6 0 10 11 10 25 0 26 -2 29 -13 18z"/>
<path d="M560 3881 c0 -18 -7 -34 -17 -40 -14 -7 -12 -9 10 -8 23 2 27 6 27
34 0 17 -4 35 -10 38 -6 4 -10 -6 -10 -24z"/>
<path d="M384 3835 c-3 -8 -4 -20 -2 -27 3 -7 7 -1 10 15 6 29 1 36 -8 12z"/>
<path d="M483 3463 c-7 -3 -13 -16 -13 -29 0 -14 -7 -36 -16 -49 -9 -14 -12
-25 -6 -25 12 0 18 -18 26 -80 4 -28 3 -38 -2 -26 -8 19 -9 18 -15 -5 -10 -36
-8 -69 3 -69 15 0 30 46 30 89 -1 20 0 47 2 61 2 14 1 35 -4 47 -4 12 -2 36 4
53 11 34 10 40 -9 33z"/>
<path d="M437 2940 c-3 -11 -1 -23 4 -26 5 -3 9 6 9 20 0 31 -6 34 -13 6z"/>
<path d="M367 2854 c-11 -11 -8 -54 3 -54 6 0 13 6 16 14 7 17 -9 50 -19 40z"/>
<path d="M410 2800 c0 -19 3 -21 12 -12 9 9 9 15 0 24 -9 9 -12 7 -12 -12z"/>
<path d="M410 2726 c0 -19 19 -31 31 -19 5 5 0 14 -11 21 -17 10 -20 10 -20
-2z"/>
<path d="M402 2600 c0 -14 2 -19 5 -12 2 6 2 18 0 25 -3 6 -5 1 -5 -13z"/>
<path d="M481 2524 c0 -11 3 -14 6 -6 3 7 2 16 -1 19 -3 4 -6 -2 -5 -13z"/>
<path d="M331 2464 c0 -11 3 -14 6 -6 3 7 2 16 -1 19 -3 4 -6 -2 -5 -13z"/>
<path d="M360 2440 c0 -22 -4 -40 -9 -40 -5 0 -7 -9 -4 -20 3 -12 7 -19 9 -18
8 9 20 118 12 118 -4 0 -8 -18 -8 -40z"/>
<path d="M350 2335 c0 -8 4 -15 10 -15 5 0 7 7 4 15 -4 8 -8 15 -10 15 -2 0
-4 -7 -4 -15z"/>
<path d="M317 2314 c-4 -4 -7 -14 -7 -23 0 -11 3 -12 11 -4 6 6 10 16 7 23 -2
6 -7 8 -11 4z"/>
<path d="M542 2181 c-15 -42 -15 -64 -1 -56 6 4 8 13 5 20 -3 8 0 15 6 17 5 2
8 15 6 28 -3 24 -4 23 -16 -9z"/>
<path d="M431 2143 c-1 -12 4 -23 11 -25 9 -3 8 -15 -4 -47 -13 -32 -15 -49
-7 -63 6 -12 7 -24 1 -31 -12 -15 -25 -110 -28 -204 -1 -39 -5 -76 -8 -82 -4
-7 -1 -9 8 -5 8 3 18 13 21 23 8 25 31 279 30 329 0 23 3 42 7 42 5 0 8 9 8
20 0 11 -4 20 -8 20 -5 0 -14 10 -20 23 l-11 22 0 -22z"/>
<path d="M534 2085 c4 -10 3 -21 -2 -24 -12 -8 -25 -61 -15 -61 10 0 33 49 33
71 0 10 -5 21 -12 25 -8 5 -9 2 -4 -11z"/>
<path d="M832 2055 c0 -16 2 -22 5 -12 2 9 2 23 0 30 -3 6 -5 -1 -5 -18z"/>
<path d="M773 2005 c0 -22 2 -30 4 -17 2 12 2 30 0 40 -3 9 -5 -1 -4 -23z"/>
<path d="M510 1858 c0 -25 3 -29 10 -18 13 20 13 50 0 50 -5 0 -10 -15 -10
-32z"/>
<path d="M681 1794 c0 -11 3 -14 6 -6 3 7 2 16 -1 19 -3 4 -6 -2 -5 -13z"/>
<path d="M450 1651 c0 -28 5 -51 10 -51 6 0 10 20 10 44 0 25 -4 48 -10 51 -6
4 -10 -13 -10 -44z"/>
<path d="M783 1651 c-1 -20 1 -27 4 -16 3 11 9 25 14 31 6 8 5 14 -4 17 -9 3
-13 -6 -14 -32z"/>
<path d="M525 1600 c3 -5 8 -10 11 -10 2 0 4 5 4 10 0 6 -5 10 -11 10 -5 0 -7
-4 -4 -10z"/>
<path d="M764 1559 c-3 -6 -1 -16 5 -22 8 -8 11 -5 11 11 0 24 -5 28 -16 11z"/>
<path d="M641 1504 c0 -11 3 -14 6 -6 3 7 2 16 -1 19 -3 4 -6 -2 -5 -13z"/>
<path d="M760 1468 c1 -17 30 -56 30 -39 0 8 6 11 15 7 8 -3 15 0 15 5 0 6 -9
9 -20 6 -13 -3 -20 0 -20 8 0 8 -4 17 -10 20 -5 3 -10 0 -10 -7z"/>
<path d="M753 1405 c0 -22 2 -30 4 -17 2 12 2 30 0 40 -3 9 -5 -1 -4 -23z"/>
<path d="M600 1410 c0 -5 5 -10 10 -10 6 0 10 5 10 10 0 6 -4 10 -10 10 -5 0
-10 -4 -10 -10z"/>
<path d="M735 1351 c-3 -2 -5 -8 -5 -12 0 -8 38 0 44 10 5 7 -32 9 -39 2z"/>
<path d="M1525 3910 c-26 -28 -15 -31 14 -3 13 13 20 23 14 23 -5 0 -18 -9
-28 -20z"/>
<path d="M4003 5103 c3 -10 8 -34 11 -54 9 -50 30 -68 48 -40 19 30 28 26 28
-13 0 -35 23 -66 35 -46 3 5 14 10 23 10 15 0 17 9 14 67 -3 57 -2 65 10 55
17 -14 28 -6 28 20 0 16 -10 18 -101 18 -91 0 -100 -2 -96 -17z m126 -108 c0
-5 -4 -3 -9 5 -5 8 -9 22 -9 30 0 16 17 -16 18 -35z"/>
<path d="M4220 5103 c1 -10 7 -29 14 -42 l14 -25 16 32 c23 44 20 52 -14 52
-22 0 -30 -5 -30 -17z"/>
<path d="M4300 5110 c0 -6 6 -20 13 -31 10 -18 9 -23 -1 -26 -9 -4 -7 -10 8
-23 15 -13 21 -32 23 -79 5 -81 22 -74 22 9 0 61 1 65 23 64 12 0 22 2 23 5 0
3 2 25 4 49 l3 42 -59 0 c-33 0 -59 -4 -59 -10z m100 -60 c0 -5 -5 -10 -11
-10 -5 0 -7 5 -4 10 3 6 8 10 11 10 2 0 4 -4 4 -10z"/>
<path d="M4467 5100 c4 -14 0 -20 -11 -20 -10 0 -16 -8 -15 -22 0 -13 3 -17 6
-10 2 6 13 12 23 12 14 0 18 7 18 30 -1 17 -7 30 -14 30 -7 0 -10 -8 -7 -20z"/>
<path d="M4600 5070 c0 -27 5 -50 10 -50 6 0 10 7 10 15 0 8 9 23 21 34 20 18
18 48 -2 36 -5 -4 -9 -1 -9 4 0 6 -7 11 -15 11 -11 0 -15 -12 -15 -50z"/>
<path d="M4674 5073 c4 -62 4 -60 21 -37 8 10 15 34 15 52 0 25 -4 32 -20 32
-17 0 -19 -6 -16 -47z"/>
<path d="M4721 5104 c0 -11 3 -14 6 -6 3 7 2 16 -1 19 -3 4 -6 -2 -5 -13z"/>
<path d="M4766 5088 c8 -49 12 -58 24 -58 5 0 10 20 10 45 0 38 -3 45 -20 45
-17 0 -19 -5 -14 -32z"/>
<path d="M4816 5063 c5 -74 13 -100 24 -82 5 7 7 26 5 42 -3 26 -2 28 21 23
22 -6 24 -4 24 30 0 28 3 35 15 31 8 -4 17 -2 20 3 4 6 -18 10 -54 10 l-60 0
5 -57z m61 32 c8 -22 -6 -33 -17 -15 -13 20 -12 30 0 30 6 0 13 -7 17 -15z"/>
<path d="M4944 5104 c3 -9 6 -30 6 -47 0 -18 4 -39 10 -47 7 -12 12 -11 30 5
22 20 22 20 40 -2 22 -28 30 -20 31 31 1 29 3 34 7 16 4 -23 5 -24 13 -5 5 13
7 -6 7 -52 -1 -40 2 -76 5 -80 4 -3 7 12 7 34 0 22 3 68 6 102 l7 61 -88 0
c-75 0 -86 -2 -81 -16z m91 -54 c3 -5 -1 -10 -9 -10 -9 0 -16 5 -16 10 0 6 4
10 9 10 6 0 13 -4 16 -10z"/>
<path d="M4860 5009 c0 -16 4 -28 9 -25 8 5 3 56 -5 56 -2 0 -4 -14 -4 -31z"/>
<path d="M4140 4895 c0 -8 5 -15 10 -15 6 0 10 7 10 15 0 8 -4 15 -10 15 -5 0
-10 -7 -10 -15z"/>
<path d="M3122 4855 c0 -16 2 -22 5 -12 2 9 2 23 0 30 -3 6 -5 -1 -5 -18z"/>
<path d="M3290 4855 c0 -31 -20 -33 -21 -2 0 21 -1 21 -9 2 -16 -37 -12 -55
13 -55 18 0 25 8 34 40 8 32 8 40 -3 40 -8 0 -14 -11 -14 -25z"/>
<path d="M2952 4840 c0 -19 2 -27 5 -17 2 9 2 25 0 35 -3 9 -5 1 -5 -18z"/>
<path d="M3746 4821 c-4 -5 -2 -20 3 -33 9 -21 10 -21 10 10 1 32 -3 39 -13
23z"/>
<path d="M2881 4754 c0 -11 3 -14 6 -6 3 7 2 16 -1 19 -3 4 -6 -2 -5 -13z"/>
<path d="M2951 4754 c0 -11 3 -14 6 -6 3 7 2 16 -1 19 -3 4 -6 -2 -5 -13z"/>
<path d="M2650 4750 c0 -5 5 -10 10 -10 6 0 10 5 10 10 0 6 -4 10 -10 10 -5 0
-10 -4 -10 -10z"/>
<path d="M3593 4675 c0 -22 2 -30 4 -17 2 12 2 30 0 40 -3 9 -5 -1 -4 -23z"/>
<path d="M3065 4680 c4 -6 11 -8 16 -5 14 9 11 15 -7 15 -8 0 -12 -5 -9 -10z"/>
<path d="M2736 4651 c-6 -10 9 -51 19 -51 5 0 -1 49 -7 56 -3 3 -9 1 -12 -5z"/>
<path d="M3060 4624 c0 -8 5 -12 10 -9 6 3 10 10 10 16 0 5 -4 9 -10 9 -5 0
-10 -7 -10 -16z"/>
<path d="M2676 4611 c-3 -5 -22 -12 -41 -15 -24 -5 -35 -12 -35 -24 0 -11 3
-13 8 -5 4 6 16 13 27 15 14 2 20 -3 20 -17 0 -17 6 -20 38 -19 54 2 64 16 34
48 -25 27 -42 33 -51 17z"/>
<path d="M3512 4585 c0 -16 2 -22 5 -12 2 9 2 23 0 30 -3 6 -5 -1 -5 -18z"/>
<path d="M2770 4563 c-30 -12 -42 -53 -15 -53 8 0 15 5 15 10 0 6 5 10 10 10
6 0 10 -6 10 -14 0 -9 8 -12 24 -9 21 4 23 2 18 -23 -5 -27 -4 -28 12 -11 19
19 31 23 21 6 -9 -13 14 -69 28 -69 6 0 18 7 28 16 16 14 18 13 24 -15 6 -27
10 -30 31 -25 18 5 24 2 24 -11 0 -10 6 -15 18 -13 11 3 16 12 15 26 l-3 22
828 -5 c455 -3 923 -7 1040 -9 177 -4 212 -2 212 10 0 8 -8 14 -17 14 -10 0
-126 2 -258 5 -132 2 -424 7 -650 10 -225 4 -466 8 -535 11 -152 6 -182 6
-195 4 -10 -2 -225 1 -403 4 -59 2 -107 7 -110 13 -4 6 -19 9 -33 8 -23 -3
-26 0 -21 17 3 14 1 19 -6 14 -7 -4 -12 -1 -12 8 0 14 -18 20 -57 19 -7 -1
-13 8 -13 18 0 20 -5 21 -30 12z"/>
<path d="M2912 4540 c0 -14 2 -19 5 -12 2 6 2 18 0 25 -3 6 -5 1 -5 -13z"/>
<path d="M3513 4510 c0 -25 2 -35 4 -22 2 12 2 32 0 45 -2 12 -4 2 -4 -23z"/>
<path d="M2328 4500 c-3 -14 -9 -34 -12 -45 -4 -11 0 -7 9 8 9 16 15 36 13 45
-3 12 -6 10 -10 -8z"/>
<path d="M1766 4361 c-3 -5 1 -14 8 -20 12 -10 13 -8 9 8 -6 23 -9 25 -17 12z"/>
<path d="M1970 4313 c0 -12 5 -25 10 -28 13 -8 13 15 0 35 -8 12 -10 11 -10
-7z"/>
<path d="M3436 2881 c-3 -5 0 -14 7 -20 10 -8 12 -24 6 -63 -12 -85 -11 -134
2 -121 14 14 24 150 15 187 -6 26 -20 34 -30 17z"/>
<path d="M1409 2851 c-20 -16 -22 -26 -22 -102 1 -63 6 -96 22 -131 23 -49 41
-62 41 -29 0 10 7 34 15 54 10 25 13 54 8 101 -5 56 -3 66 11 72 15 6 15 9 -5
30 -27 29 -40 30 -70 5z"/>
<path d="M2267 2735 c-20 -19 -21 -29 -7 -56 14 -24 50 -24 77 0 15 14 23 17
32 8 19 -19 13 12 -7 33 -26 28 -75 36 -95 15z"/>
<path d="M2546 2727 c-32 -26 -28 -47 9 -47 45 0 75 18 75 45 0 21 -5 25 -27
25 -16 0 -41 -11 -57 -23z"/>
<path d="M2625 2643 c-44 -10 -51 -15 -30 -23 24 -9 67 2 73 18 4 12 -6 13
-43 5z"/>
<path d="M2210 2612 c0 -30 68 -44 89 -18 9 11 8 15 -5 20 -23 9 -84 7 -84 -2z"/>
<path d="M2294 2308 c-3 -4 -15 -8 -28 -8 -25 0 -76 -21 -76 -32 0 -5 -7 -8
-15 -8 -22 0 -75 -28 -75 -40 0 -5 15 -11 33 -14 107 -16 117 -16 134 1 10 10
29 17 42 15 13 -2 27 2 31 9 5 7 34 13 67 15 32 2 83 6 113 9 30 4 82 2 115
-4 73 -14 77 -14 145 -12 l55 1 -25 20 c-14 11 -41 20 -61 20 -20 0 -56 7 -80
16 -33 12 -87 17 -207 18 -90 2 -165 -1 -168 -6z"/>
<path d="M1586 1727 c3 -10 9 -15 12 -12 3 3 0 11 -7 18 -10 9 -11 8 -5 -6z"/>
<path d="M3286 1594 c-28 -142 -76 -264 -151 -389 -13 -22 -31 -53 -40 -70
-22 -38 -136 -155 -151 -155 -7 0 -14 -3 -16 -7 -5 -12 -86 -51 -92 -45 -4 3
-6 14 -6 24 0 14 -8 18 -35 18 -23 0 -38 6 -42 15 -3 9 -13 15 -22 14 -9 -1
-36 7 -61 18 -49 22 -108 38 -126 35 -7 -1 -14 5 -18 13 -3 9 -11 13 -16 10
-6 -4 -37 3 -68 15 -31 12 -66 25 -77 30 -53 20 -188 92 -250 134 -39 25 -81
53 -95 62 l-25 16 26 -23 c14 -13 37 -33 51 -44 41 -32 109 -97 163 -156 107
-116 285 -229 467 -295 68 -24 165 -61 215 -80 l93 -36 45 21 c55 26 83 69
138 206 22 55 61 150 88 211 26 60 57 143 70 184 l22 73 -22 86 c-12 47 -24
104 -27 125 -12 84 -20 82 -38 -10z"/>
<path d="M3501 1174 c0 -11 3 -14 6 -6 3 7 2 16 -1 19 -3 4 -6 -2 -5 -13z"/>
<path d="M3512 1110 c0 -14 2 -19 5 -12 2 6 2 18 0 25 -3 6 -5 1 -5 -13z"/>
<path d="M3503 1059 c-5 -16 -8 -18 -15 -7 -7 9 -8 8 -4 -5 3 -10 7 -60 7
-110 1 -64 3 -81 8 -57 4 19 12 44 18 55 13 25 14 145 1 145 -5 0 -12 -9 -15
-21z"/>
<path d="M3172 730 c-7 -11 -27 -27 -45 -35 l-32 -15 38 4 c37 5 38 4 35 -22
-2 -18 -12 -31 -30 -40 -19 -9 -28 -21 -28 -36 0 -13 -3 -44 -6 -69 -6 -40 -4
-48 12 -53 29 -10 118 -94 136 -127 10 -20 9 -20 -18 1 -45 34 -143 102 -148
102 -4 0 -26 -83 -26 -100 0 -6 15 -8 37 -6 41 5 138 -24 163 -50 14 -14 13
-15 -10 -10 -40 8 -202 27 -205 24 -3 -4 -52 -178 -59 -214 -6 -27 -4 -32 15
-37 27 -7 20 -29 -12 -38 -20 -6 -18 -7 12 -8 29 -1 38 3 42 19 3 11 10 20 16
20 6 0 20 -9 31 -20 16 -16 33 -20 80 -20 33 0 60 3 60 6 0 11 -28 33 -34 27
-3 -4 -6 -1 -6 5 0 6 -8 13 -17 15 -10 3 18 3 62 0 81 -4 165 -27 165 -44 0
-5 9 -9 21 -9 19 0 18 4 -17 72 -20 40 -41 80 -46 88 -27 47 -45 96 -37 104
15 16 49 14 50 -3 2 -31 -3 -56 -13 -62 -6 -4 -7 -12 -3 -18 8 -14 35 4 35 24
0 18 25 26 39 12 23 -23 22 3 -2 35 -14 18 -35 58 -47 88 -25 62 -60 219 -60
267 0 50 -16 80 -61 113 -49 35 -69 38 -87 10z m82 -55 c-4 -8 -11 -15 -16
-15 -6 0 -5 6 2 15 7 8 14 15 16 15 2 0 1 -7 -2 -15z m6 -44 c0 -11 -31 -24
-39 -16 -3 3 1 10 9 15 19 12 30 12 30 1z m-129 -237 c17 -8 29 -17 27 -20 -5
-4 -68 25 -68 32 0 7 10 4 41 -12z m-31 -314 c8 -5 11 -10 5 -10 -5 0 -17 5
-25 10 -8 5 -10 10 -5 10 6 0 17 -5 25 -10z"/>
<path d="M1984 643 c9 -17 25 -57 37 -88 23 -61 57 -105 83 -105 19 0 19 1 6
35 -7 17 -7 24 0 20 28 -18 2 19 -65 90 -55 58 -71 71 -61 48z"/>
<path d="M2350 296 c0 -2 8 -10 18 -17 15 -13 16 -12 3 4 -13 16 -21 21 -21
13z"/>
</g>
</svg>
